<!DOCTYPE svg PUBLIC "-//W3C//DTD SVG 1.1//EN" "http://www.w3.org/Graphics/SVG/1.1/DTD/svg11.dtd">

<!-- Uploaded to: SVG Repo, www.svgrepo.com, Transformed by: SVG Repo Mixer Tools -->
<svg width="800px" height="800px" viewBox="-4 -4 32 32" xmlns="http://www.w3.org/2000/svg" fill="#f87528" stroke="#f87528" stroke-width="0.00024000000000000003">

<g id="SVGRepo_bgCarrier" stroke-width="0"/>

<g id="SVGRepo_tracerCarrier" stroke-linecap="round" stroke-linejoin="round"/>

<g id="SVGRepo_iconCarrier"> <g transform="scale(1.45) translate(-3.6, -3.2)"> <path fill="none" d="M0 0h24v24H0z"/> <path d="M11.327 1.612a1 1 0 0 1 1.246-.08l.1.08L23 11h-3v9a1 1 0 0 1-.883.993L19 21h-6.5l2.5-4-3.5-3 4-3L13 9l.5-3-3 3 2.5 2-5 3 3.75 3.5L8.5 21H5a1 1 0 0 1-.993-.883L4 20v-9H1l10.327-9.388z"/> </g> </g>

</svg>